<svg aria-hidden="true" style="position: absolute; width: 0; height: 0; overflow: hidden;" version="1.1" xmlns="http://www.w3.org/2000/svg" xmlns:xlink="http://www.w3.org/1999/xlink">
<defs>
<symbol id="arrow" viewBox="0 0 32 32">
<path d="M27.243 1.722c-0.154-1.094-1.165-1.856-2.259-1.702l-17.825 2.505c-1.094 0.154-1.856 1.165-1.702 2.259s1.165 1.856 2.259 1.702l15.844-2.227 2.227 15.844c0.154 1.094 1.165 1.856 2.259 1.702s1.856-1.165 1.702-2.259l-2.505-17.825zM5.194 31.955l21.665-28.751-3.195-2.407-21.665 28.751 3.195 2.407z"></path>
</symbol>
<symbol id="eye" viewBox="0 0 32 32">
<path stroke-linejoin="round" stroke-linecap="round" stroke-miterlimit="4" stroke-width="3.2" d="M1.333 16c0 0 5.333-10.667 14.667-10.667s14.667 10.667 14.667 10.667c0 0-5.333 10.667-14.667 10.667s-14.667-10.667-14.667-10.667z"></path>
<path stroke-linejoin="round" stroke-linecap="round" stroke-miterlimit="4" stroke-width="3.2" d="M16 20c2.209 0 4-1.791 4-4s-1.791-4-4-4c-2.209 0-4 1.791-4 4s1.791 4 4 4z"></path>
</symbol>
<symbol id="eye-off" viewBox="0 0 32 32">
<path stroke-linejoin="round" stroke-linecap="round" stroke-miterlimit="4" stroke-width="3.2" d="M23.92 23.92c-2.279 1.737-5.055 2.7-7.92 2.747-9.333 0-14.667-10.667-14.667-10.667 1.659-3.091 3.959-5.791 6.747-7.92M13.2 5.653c0.918-0.215 1.857-0.322 2.8-0.32 9.333 0 14.667 10.667 14.667 10.667-0.809 1.514-1.775 2.94-2.88 4.253M18.827 18.827c-0.366 0.393-0.808 0.708-1.298 0.927s-1.020 0.336-1.557 0.346-1.071-0.089-1.569-0.291c-0.498-0.201-0.95-0.5-1.33-0.88s-0.679-0.832-0.88-1.33c-0.201-0.498-0.3-1.032-0.29-1.569s0.127-1.067 0.346-1.557 0.534-0.932 0.927-1.298"></path>
<path stroke-linejoin="round" stroke-linecap="round" stroke-miterlimit="4" stroke-width="3.2" d="M1.333 1.333l29.333 29.333"></path>
</symbol>
<symbol id="heart" viewBox="0 0 32 32">
<path stroke-linejoin="round" stroke-linecap="round" stroke-miterlimit="4" stroke-width="2.4615" d="M27.787 6.147c-0.681-0.681-1.49-1.222-2.38-1.591s-1.844-0.559-2.807-0.559c-0.963 0-1.917 0.19-2.807 0.559s-1.698 0.909-2.379 1.591l-1.413 1.413-1.413-1.413c-1.376-1.376-3.241-2.148-5.187-2.148s-3.811 0.773-5.187 2.148c-1.376 1.376-2.148 3.241-2.148 5.187s0.773 3.811 2.148 5.187l11.787 11.787 11.787-11.787c0.681-0.681 1.222-1.49 1.591-2.379s0.559-1.844 0.559-2.807-0.19-1.917-0.559-2.807c-0.369-0.89-0.909-1.699-1.591-2.38z"></path>
</symbol>
<symbol id="map-pin" viewBox="0 0 32 32">
<path stroke-linejoin="round" stroke-linecap="round" stroke-miterlimit="4" stroke-width="3" d="M28 13.333c0 9.333-12 17.333-12 17.333s-12-8-12-17.333c0-3.183 1.264-6.235 3.515-8.485s5.303-3.515 8.485-3.515c3.183 0 6.235 1.264 8.485 3.515s3.515 5.303 3.515 8.485z"></path>
<path stroke-linejoin="round" stroke-linecap="round" stroke-miterlimit="4" stroke-width="3" d="M16 17.333c2.209 0 4-1.791 4-4s-1.791-4-4-4c-2.209 0-4 1.791-4 4s1.791 4 4 4z"></path>
</symbol>
<symbol id="user" viewBox="0 0 32 32">
<path d="M16 5.333c1.415 0 2.771 0.562 3.771 1.562s1.562 2.357 1.562 3.771-0.562 2.771-1.562 3.771c-1 1-2.357 1.562-3.771 1.562s-2.771-0.562-3.771-1.562c-1-1-1.562-2.357-1.562-3.771s0.562-2.771 1.562-3.771c1-1 2.357-1.562 3.771-1.562zM16 18.667c5.893 0 10.667 2.387 10.667 5.333v2.667h-21.333v-2.667c0-2.947 4.773-5.333 10.667-5.333z"></path>
</symbol>
<symbol id="star" viewBox="0 0 32 32">
<path stroke-linejoin="miter" stroke-linecap="butt" stroke-miterlimit="4" stroke-width="2.4" d="M19.6 9.395c0.318 0.603 0.898 1.024 1.57 1.141l7.6 1.313-5.375 5.535c-0.475 0.489-0.697 1.171-0.6 1.846l1.098 7.635-6.922-3.402-0.234-0.1c-0.476-0.169-0.996-0.169-1.473 0l-0.234 0.1-6.924 3.402 1.1-7.635c0.097-0.675-0.125-1.357-0.6-1.846l-5.377-5.535 7.602-1.313c0.672-0.116 1.252-0.538 1.57-1.141l3.6-6.822 3.6 6.822z"></path>
</symbol>
<symbol id="check" viewBox="0 0 32 32">
<path d="M8 13.333l-2.667 2.667 8 8 13.333-13.333-2.667-2.667-10.667 10.667-5.333-5.333z"></path>
</symbol>
<symbol id="menu" viewBox="0 0 32 32">
<path d="M4.936 24.295c-0.321 0-0.59-0.11-0.808-0.329s-0.327-0.493-0.327-0.82c0-0.322 0.109-0.591 0.327-0.807s0.488-0.323 0.808-0.323h22.127c0.321 0 0.591 0.11 0.812 0.329s0.331 0.49 0.331 0.812c0 0.328-0.11 0.599-0.331 0.814s-0.492 0.323-0.812 0.323h-22.127zM4.936 17.136c-0.321 0-0.59-0.11-0.808-0.329s-0.327-0.49-0.327-0.812c0-0.322 0.109-0.591 0.327-0.806s0.488-0.323 0.808-0.323h22.127c0.321 0 0.591 0.11 0.812 0.329s0.331 0.49 0.331 0.812c0 0.322-0.11 0.591-0.331 0.806s-0.492 0.323-0.812 0.323h-22.127zM4.936 9.984c-0.321 0-0.59-0.11-0.808-0.329s-0.327-0.493-0.327-0.82c0-0.322 0.109-0.591 0.327-0.806s0.488-0.323 0.808-0.323h22.127c0.321 0 0.591 0.11 0.812 0.329s0.331 0.49 0.331 0.812c0 0.328-0.11 0.599-0.331 0.815s-0.492 0.323-0.812 0.323h-22.127z"></path>
</symbol>
<symbol id="x" viewBox="0 0 32 32">
<path stroke-linejoin="round" stroke-linecap="round" stroke-miterlimit="4" stroke-width="2.5" d="M24 8l-16 16"></path>
<path stroke-linejoin="round" stroke-linecap="round" stroke-miterlimit="4" stroke-width="2.5" d="M8 8l16 16"></path>
</symbol>
<symbol id="chevron" viewBox="0 0 32 32">
<path stroke-linejoin="round" stroke-linecap="round" stroke-miterlimit="4" stroke-width="3.2" d="M8 12l8 8 8-8"></path>
</symbol>
</defs>
</svg>
